<svg xmlns="http://www.w3.org/2000/svg" xmlns:xlink="http://www.w3.org/1999/xlink" width="1920" zoomAndPan="magnify" viewBox="0 0 1440 809.999993" height="1080" preserveAspectRatio="xMidYMid meet" version="1.0"><defs><g/><clipPath id="296efd8d9c"><path d="M 1110.609375 423.34375 L 1166.71875 423.34375 L 1166.71875 479.449219 L 1110.609375 479.449219 Z M 1110.609375 423.34375 " clip-rule="nonzero"/></clipPath><clipPath id="a1128980cd"><path d="M 1138.664062 423.34375 C 1123.171875 423.34375 1110.609375 435.902344 1110.609375 451.394531 C 1110.609375 466.890625 1123.171875 479.449219 1138.664062 479.449219 C 1154.15625 479.449219 1166.71875 466.890625 1166.71875 451.394531 C 1166.71875 435.902344 1154.15625 423.34375 1138.664062 423.34375 Z M 1138.664062 423.34375 " clip-rule="nonzero"/></clipPath><clipPath id="1e4af54cc0"><path d="M 371.617188 297.640625 L 427.726562 297.640625 L 427.726562 353.746094 L 371.617188 353.746094 Z M 371.617188 297.640625 " clip-rule="nonzero"/></clipPath><clipPath id="f13c0e9c56"><path d="M 399.671875 297.640625 C 384.179688 297.640625 371.617188 310.203125 371.617188 325.695312 C 371.617188 341.1875 384.179688 353.746094 399.671875 353.746094 C 415.164062 353.746094 427.726562 341.1875 427.726562 325.695312 C 427.726562 310.203125 415.164062 297.640625 399.671875 297.640625 Z M 399.671875 297.640625 " clip-rule="nonzero"/></clipPath></defs><g fill="#ffffff" fill-opacity="1"><g transform="translate(243.783473, 476.110004)"><g><path d="M 80.078125 0 L 45.59375 0 C 42.9375 0 41.085938 -1.285156 40.046875 -3.859375 L 3.140625 -100.828125 C 2.578125 -102.515625 2.632812 -103.859375 3.3125 -104.859375 C 4 -105.867188 5.226562 -106.375 7 -106.375 L 33.28125 -106.375 C 35.851562 -106.375 37.625 -105.085938 38.59375 -102.515625 L 62.71875 -30.390625 L 75.75 -69.46875 C 80.25 -82.976562 86.554688 -92.910156 94.671875 -99.265625 C 102.796875 -105.617188 113.050781 -108.796875 125.4375 -108.796875 L 85.625 -3.859375 C 84.582031 -1.285156 82.734375 0 80.078125 0 Z M 80.078125 0 "/></g></g></g><g fill="#ffffff" fill-opacity="1"><g transform="translate(371.139459, 476.110004)"><g><path d="M 27.984375 -127.359375 C 23.554688 -127.359375 19.3125 -128.082031 15.25 -129.53125 C 11.195312 -130.976562 7.882812 -133.148438 5.3125 -136.046875 C 2.738281 -138.941406 1.453125 -142.5625 1.453125 -146.90625 C 1.453125 -151.164062 2.738281 -154.742188 5.3125 -157.640625 C 7.882812 -160.535156 11.195312 -162.722656 15.25 -164.203125 C 19.3125 -165.691406 23.554688 -166.4375 27.984375 -166.4375 C 32.328125 -166.4375 36.523438 -165.691406 40.578125 -164.203125 C 44.640625 -162.722656 47.976562 -160.535156 50.59375 -157.640625 C 53.207031 -154.742188 54.515625 -151.164062 54.515625 -146.90625 C 54.515625 -142.5625 53.207031 -138.941406 50.59375 -136.046875 C 47.976562 -133.148438 44.640625 -130.976562 40.578125 -129.53125 C 36.523438 -128.082031 32.328125 -127.359375 27.984375 -127.359375 Z M 42.9375 0 L 16.40625 0 C 13.1875 0 11.578125 -1.609375 11.578125 -4.828125 L 11.578125 -108.796875 C 23.316406 -106.378906 32.28125 -101.25 38.46875 -93.40625 C 44.664062 -85.570312 47.765625 -75.421875 47.765625 -62.953125 L 47.765625 -4.828125 C 47.765625 -1.609375 46.15625 0 42.9375 0 Z M 42.9375 0 "/></g></g></g><g fill="#ffffff" fill-opacity="1"><g transform="translate(429.028552, 476.110004)"><g><path d="M 80.078125 -110.234375 C 89.566406 -110.234375 97.242188 -108.203125 103.109375 -104.140625 C 108.984375 -100.085938 113.285156 -94.421875 116.015625 -87.140625 C 118.753906 -79.859375 120.125 -71.394531 120.125 -61.75 L 120.125 -4.828125 C 120.125 -1.609375 118.515625 0 115.296875 0 L 88.765625 0 C 85.546875 0 83.9375 -1.609375 83.9375 -4.828125 L 83.9375 -61.75 C 83.9375 -68.019531 82.671875 -72.84375 80.140625 -76.21875 C 77.609375 -79.601562 73.488281 -81.296875 67.78125 -81.296875 C 62.632812 -81.296875 58.191406 -79.40625 54.453125 -75.625 C 50.710938 -71.84375 48.484375 -66.613281 47.765625 -59.9375 L 47.765625 -4.828125 C 47.765625 -1.609375 46.15625 0 42.9375 0 L 16.40625 0 C 13.1875 0 11.578125 -1.609375 11.578125 -4.828125 L 11.578125 -108.796875 C 18.734375 -107.347656 24.863281 -104.851562 29.96875 -101.3125 C 35.070312 -97.769531 39.113281 -93.304688 42.09375 -87.921875 C 47.5625 -96.046875 53.507812 -101.796875 59.9375 -105.171875 C 66.375 -108.546875 73.085938 -110.234375 80.078125 -110.234375 Z M 80.078125 -110.234375 "/></g></g></g><g fill="#ffffff" fill-opacity="1"><g transform="translate(559.278965, 476.110004)"><g><path d="M 84.1875 -110.234375 C 92.0625 -110.234375 99.234375 -108.847656 105.703125 -106.078125 C 112.179688 -103.304688 117.769531 -99.382812 122.46875 -94.3125 C 127.175781 -89.25 130.816406 -83.238281 133.390625 -76.28125 C 135.960938 -69.332031 137.25 -61.675781 137.25 -53.3125 C 137.25 -44.863281 135.960938 -37.140625 133.390625 -30.140625 C 130.816406 -23.148438 127.175781 -17.125 122.46875 -12.0625 C 117.769531 -7 112.179688 -3.078125 105.703125 -0.296875 C 99.234375 2.472656 92.0625 3.859375 84.1875 3.859375 C 75.414062 3.859375 67.472656 2.109375 60.359375 -1.390625 C 53.242188 -4.890625 47.316406 -9.773438 42.578125 -16.046875 C 36.703125 -3.742188 26.367188 2.40625 11.578125 2.40625 L 11.578125 -180.90625 C 23.316406 -178.5 32.28125 -173.375 38.46875 -165.53125 C 44.664062 -157.695312 47.765625 -147.546875 47.765625 -135.078125 L 47.765625 -96.25 C 52.347656 -100.75 57.734375 -104.203125 63.921875 -106.609375 C 70.109375 -109.023438 76.863281 -110.234375 84.1875 -110.234375 Z M 73.09375 -25.09375 C 78 -25.09375 82.359375 -26.273438 86.171875 -28.640625 C 89.992188 -31.015625 92.988281 -34.3125 95.15625 -38.53125 C 97.332031 -42.75 98.421875 -47.59375 98.421875 -53.0625 C 98.421875 -58.53125 97.332031 -63.375 95.15625 -67.59375 C 92.988281 -71.820312 89.992188 -75.117188 86.171875 -77.484375 C 82.359375 -79.859375 78 -81.046875 73.09375 -81.046875 C 68.1875 -81.046875 63.820312 -79.859375 60 -77.484375 C 56.1875 -75.117188 53.191406 -71.820312 51.015625 -67.59375 C 48.847656 -63.375 47.765625 -58.53125 47.765625 -53.0625 C 47.765625 -47.59375 48.847656 -42.75 51.015625 -38.53125 C 53.191406 -34.3125 56.1875 -31.015625 60 -28.640625 C 63.820312 -26.273438 68.1875 -25.09375 73.09375 -25.09375 Z M 73.09375 -25.09375 "/></g></g></g><g fill="#ffffff" fill-opacity="1"><g transform="translate(703.51925, 476.110004)"><g><path d="M 67.546875 3.859375 C 58.054688 3.859375 49.550781 2.472656 42.03125 -0.296875 C 34.507812 -3.078125 28.113281 -7.019531 22.84375 -12.125 C 17.582031 -17.226562 13.582031 -23.253906 10.84375 -30.203125 C 8.113281 -37.160156 6.75 -44.78125 6.75 -53.0625 C 6.75 -61.425781 8.132812 -69.085938 10.90625 -76.046875 C 13.6875 -83.003906 17.707031 -89.035156 22.96875 -94.140625 C 28.238281 -99.242188 34.613281 -103.203125 42.09375 -106.015625 C 49.570312 -108.828125 58.054688 -110.234375 67.546875 -110.234375 C 76.953125 -110.234375 85.390625 -108.828125 92.859375 -106.015625 C 100.335938 -103.203125 106.691406 -99.242188 111.921875 -94.140625 C 117.148438 -89.035156 121.148438 -83.003906 123.921875 -76.046875 C 126.703125 -69.085938 128.09375 -61.425781 128.09375 -53.0625 C 128.09375 -41.882812 125.675781 -32.015625 120.84375 -23.453125 C 116.019531 -14.890625 109.085938 -8.195312 100.046875 -3.375 C 91.003906 1.445312 80.171875 3.859375 67.546875 3.859375 Z M 67.546875 -24.359375 C 72.847656 -24.359375 77.328125 -25.601562 80.984375 -28.09375 C 84.648438 -30.59375 87.425781 -33.992188 89.3125 -38.296875 C 91.195312 -42.597656 92.140625 -47.441406 92.140625 -52.828125 C 92.140625 -58.296875 91.195312 -63.238281 89.3125 -67.65625 C 87.425781 -72.082031 84.648438 -75.582031 80.984375 -78.15625 C 77.328125 -80.726562 72.847656 -82.015625 67.546875 -82.015625 C 62.234375 -82.015625 57.726562 -80.707031 54.03125 -78.09375 C 50.332031 -75.476562 47.519531 -71.957031 45.59375 -67.53125 C 43.664062 -63.113281 42.703125 -58.210938 42.703125 -52.828125 C 42.703125 -47.515625 43.644531 -42.707031 45.53125 -38.40625 C 47.414062 -34.113281 50.207031 -30.695312 53.90625 -28.15625 C 57.601562 -25.625 62.148438 -24.359375 67.546875 -24.359375 Z M 67.546875 -24.359375 "/></g></g></g><g fill="#ffffff" fill-opacity="1"><g transform="translate(838.593808, 476.110004)"><g><path d="M 80.078125 -110.234375 C 89.566406 -110.234375 97.242188 -108.203125 103.109375 -104.140625 C 108.984375 -100.085938 113.285156 -94.421875 116.015625 -87.140625 C 118.753906 -79.859375 120.125 -71.394531 120.125 -61.75 L 120.125 -4.828125 C 120.125 -1.609375 118.515625 0 115.296875 0 L 88.765625 0 C 85.546875 0 83.9375 -1.609375 83.9375 -4.828125 L 83.9375 -61.75 C 83.9375 -68.019531 82.671875 -72.84375 80.140625 -76.21875 C 77.609375 -79.601562 73.488281 -81.296875 67.78125 -81.296875 C 62.632812 -81.296875 58.191406 -79.40625 54.453125 -75.625 C 50.710938 -71.84375 48.484375 -66.613281 47.765625 -59.9375 L 47.765625 -4.828125 C 47.765625 -1.609375 46.15625 0 42.9375 0 L 16.40625 0 C 13.1875 0 11.578125 -1.609375 11.578125 -4.828125 L 11.578125 -108.796875 C 18.734375 -107.347656 24.863281 -104.851562 29.96875 -101.3125 C 35.070312 -97.769531 39.113281 -93.304688 42.09375 -87.921875 C 47.5625 -96.046875 53.507812 -101.796875 59.9375 -105.171875 C 66.375 -108.546875 73.085938 -110.234375 80.078125 -110.234375 Z M 80.078125 -110.234375 "/></g></g></g><g fill="#ffffff" fill-opacity="1"><g transform="translate(968.844251, 476.110004)"><g><path d="M 68.5 -110.234375 C 76.625 -110.234375 84.222656 -109.023438 91.296875 -106.609375 C 98.378906 -104.203125 104.632812 -100.6875 110.0625 -96.0625 C 115.488281 -91.4375 119.726562 -85.726562 122.78125 -78.9375 C 125.832031 -72.144531 127.359375 -64.328125 127.359375 -55.484375 L 127.359375 -51.140625 C 127.359375 -47.921875 125.75 -46.3125 122.53125 -46.3125 L 44.859375 -46.3125 C 45.347656 -39 47.601562 -33.109375 51.625 -28.640625 C 55.644531 -24.179688 61.03125 -21.953125 67.78125 -21.953125 C 73.09375 -21.953125 77.472656 -23.035156 80.921875 -25.203125 C 84.378906 -27.378906 86.832031 -30.070312 88.28125 -33.28125 C 88.925781 -34.65625 89.648438 -35.679688 90.453125 -36.359375 C 91.253906 -37.046875 92.300781 -37.390625 93.59375 -37.390625 L 120.375 -37.390625 C 122.0625 -37.390625 123.328125 -36.882812 124.171875 -35.875 C 125.015625 -34.875 125.113281 -33.53125 124.46875 -31.84375 C 121.65625 -23.800781 117.535156 -17.144531 112.109375 -11.875 C 106.679688 -6.613281 100.265625 -2.675781 92.859375 -0.0625 C 85.460938 2.550781 77.34375 3.859375 68.5 3.859375 C 59.332031 3.859375 50.953125 2.550781 43.359375 -0.0625 C 35.765625 -2.675781 29.234375 -6.453125 23.765625 -11.390625 C 18.296875 -16.335938 14.050781 -22.328125 11.03125 -29.359375 C 8.019531 -36.398438 6.515625 -44.300781 6.515625 -53.0625 C 6.515625 -61.75 8.0625 -69.609375 11.15625 -76.640625 C 14.25 -83.679688 18.566406 -89.691406 24.109375 -94.671875 C 29.660156 -99.660156 36.21875 -103.5 43.78125 -106.1875 C 51.34375 -108.882812 59.582031 -110.234375 68.5 -110.234375 Z M 45.34375 -65.859375 L 89.015625 -65.859375 C 88.691406 -71.640625 86.597656 -76.378906 82.734375 -80.078125 C 78.878906 -83.773438 73.734375 -85.625 67.296875 -85.625 C 60.628906 -85.625 55.566406 -83.773438 52.109375 -80.078125 C 48.648438 -76.378906 46.394531 -71.640625 45.34375 -65.859375 Z M 45.34375 -65.859375 "/></g></g></g><g clip-path="url(#296efd8d9c)"><g clip-path="url(#a1128980cd)"><path fill="#ffffff" d="M 1110.609375 423.34375 L 1166.71875 423.34375 L 1166.71875 479.449219 L 1110.609375 479.449219 Z M 1110.609375 423.34375 " fill-opacity="1" fill-rule="nonzero"/></g></g><g fill="#ffffff" fill-opacity="1"><g transform="translate(281.827273, 551.803912)"><g><path d="M 1.84375 -42.59375 L 1.84375 -43.15625 L 7.625 -43.15625 L 7.625 -36.640625 C 8.320312 -38.722656 9.570312 -40.347656 11.375 -41.515625 C 13.175781 -42.691406 15.265625 -43.398438 17.640625 -43.640625 C 20.015625 -43.890625 22.441406 -43.632812 24.921875 -42.875 C 27.398438 -42.113281 29.710938 -40.84375 31.859375 -39.0625 C 34.015625 -37.28125 35.757812 -34.929688 37.09375 -32.015625 C 38.425781 -29.109375 39.09375 -25.628906 39.09375 -21.578125 C 39.09375 -17.597656 38.445312 -14.191406 37.15625 -11.359375 C 35.863281 -8.535156 34.0625 -6.242188 31.75 -4.484375 C 29.4375 -2.722656 26.734375 -1.421875 23.640625 -0.578125 C 20.546875 0.253906 17.171875 0.671875 13.515625 0.671875 C 11.753906 0.671875 9.910156 0.566406 7.984375 0.359375 C 6.066406 0.160156 4.203125 0.0390625 2.390625 0 L 1.84375 0 L 1.84375 -0.546875 C 2.050781 -0.546875 2.335938 -0.832031 2.703125 -1.40625 C 3.078125 -1.988281 3.265625 -3.28125 3.265625 -5.28125 L 3.265625 -37.859375 C 3.265625 -39.910156 3.078125 -41.210938 2.703125 -41.765625 C 2.335938 -42.316406 2.050781 -42.59375 1.84375 -42.59375 Z M 34.796875 -21.578125 C 34.796875 -25.222656 34.300781 -28.363281 33.3125 -31 C 32.332031 -33.644531 31.03125 -35.828125 29.40625 -37.546875 C 27.789062 -39.273438 26.019531 -40.554688 24.09375 -41.390625 C 22.164062 -42.234375 20.238281 -42.675781 18.3125 -42.71875 C 16.382812 -42.757812 14.613281 -42.410156 13 -41.671875 C 11.382812 -40.929688 10.082031 -39.851562 9.09375 -38.4375 C 8.113281 -37.03125 7.625 -35.28125 7.625 -33.1875 L 7.625 -0.25 C 8.644531 -0.164062 9.644531 -0.0820312 10.625 0 C 11.613281 0.0820312 12.578125 0.125 13.515625 0.125 C 17.984375 0.125 21.804688 -0.742188 24.984375 -2.484375 C 28.160156 -4.234375 30.585938 -6.734375 32.265625 -9.984375 C 33.953125 -13.242188 34.796875 -17.109375 34.796875 -21.578125 Z M 34.796875 -21.578125 "/></g></g></g><g fill="#ffffff" fill-opacity="1"><g transform="translate(322.762653, 551.803912)"><g><path d="M 2.09375 -10.875 C 1.394531 -13.539062 1.40625 -16.144531 2.125 -18.6875 C 2.84375 -21.226562 4.125 -23.453125 5.96875 -25.359375 C 7.8125 -27.265625 10.0625 -28.566406 12.71875 -29.265625 C 15.550781 -30.035156 18.21875 -30.050781 20.71875 -29.3125 C 23.21875 -28.582031 25.359375 -27.363281 27.140625 -25.65625 C 28.921875 -23.957031 30.140625 -22.023438 30.796875 -19.859375 C 29.316406 -19.859375 27.726562 -19.796875 26.03125 -19.671875 C 24.332031 -19.546875 22.785156 -19.320312 21.390625 -19 C 22.953125 -19.039062 24.316406 -18.691406 25.484375 -17.953125 C 26.648438 -17.210938 27.582031 -16.226562 28.28125 -15 C 28.976562 -13.769531 29.363281 -12.4375 29.4375 -11 C 29.601562 -8.789062 29.15625 -6.875 28.09375 -5.25 C 27.03125 -3.632812 25.582031 -2.363281 23.75 -1.4375 C 21.925781 -0.519531 19.925781 0.0078125 17.75 0.15625 C 15.582031 0.300781 13.429688 0.00390625 11.296875 -0.734375 C 9.171875 -1.472656 7.289062 -2.671875 5.65625 -4.328125 C 4.019531 -5.992188 2.832031 -8.175781 2.09375 -10.875 Z M 5.71875 -15.3125 C 5.84375 -14.15625 6.023438 -13.046875 6.265625 -11.984375 C 7.085938 -9.035156 8.273438 -6.71875 9.828125 -5.03125 C 11.390625 -3.351562 13.113281 -2.21875 15 -1.625 C 16.882812 -1.03125 18.757812 -0.894531 20.625 -1.21875 C 22.488281 -1.550781 24.132812 -2.25 25.5625 -3.3125 C 27 -4.382812 28.023438 -5.75 28.640625 -7.40625 C 29.253906 -9.0625 29.253906 -10.914062 28.640625 -12.96875 C 28.191406 -14.488281 27.394531 -15.757812 26.25 -16.78125 C 25.101562 -17.800781 23.6875 -18.382812 22 -18.53125 C 20.320312 -18.675781 18.457031 -18.15625 16.40625 -16.96875 C 14.9375 -16.101562 13.492188 -15.492188 12.078125 -15.140625 C 10.660156 -14.796875 9.359375 -14.664062 8.171875 -14.75 C 7.765625 -14.789062 7.34375 -14.851562 6.90625 -14.9375 C 6.476562 -15.019531 6.082031 -15.144531 5.71875 -15.3125 Z M 26.0625 -20.15625 C 25.28125 -21.925781 24.234375 -23.566406 22.921875 -25.078125 C 21.609375 -26.597656 20.101562 -27.734375 18.40625 -28.484375 C 16.707031 -29.242188 14.851562 -29.359375 12.84375 -28.828125 C 11 -28.335938 9.535156 -27.40625 8.453125 -26.03125 C 7.367188 -24.65625 6.617188 -23.054688 6.203125 -21.234375 C 5.796875 -19.410156 5.632812 -17.597656 5.71875 -15.796875 C 6.414062 -15.472656 7.234375 -15.269531 8.171875 -15.1875 C 9.316406 -15.144531 10.578125 -15.285156 11.953125 -15.609375 C 13.328125 -15.941406 14.734375 -16.515625 16.171875 -17.328125 C 17.847656 -18.316406 19.566406 -19.015625 21.328125 -19.421875 C 23.085938 -19.828125 24.664062 -20.070312 26.0625 -20.15625 Z M 26.0625 -20.15625 "/></g></g></g><g fill="#ffffff" fill-opacity="1"><g transform="translate(355.092998, 551.803912)"><g><path d="M 27.78125 -20.90625 C 26.957031 -22.820312 25.773438 -24.507812 24.234375 -25.96875 C 22.703125 -27.425781 20.960938 -28.441406 19.015625 -29.015625 C 17.078125 -29.585938 15.019531 -29.523438 12.84375 -28.828125 C 11.125 -28.378906 9.726562 -27.539062 8.65625 -26.3125 C 7.59375 -25.082031 6.828125 -23.632812 6.359375 -21.96875 C 5.890625 -20.3125 5.664062 -18.613281 5.6875 -16.875 C 5.707031 -15.132812 5.898438 -13.503906 6.265625 -11.984375 L 6.453125 -11.4375 C 7.316406 -8.476562 8.578125 -6.191406 10.234375 -4.578125 C 11.890625 -2.960938 13.703125 -1.90625 15.671875 -1.40625 C 17.640625 -0.914062 19.554688 -0.894531 21.421875 -1.34375 C 23.285156 -1.800781 24.894531 -2.644531 26.25 -3.875 C 27.601562 -5.101562 28.484375 -6.597656 28.890625 -8.359375 L 29.328125 -8.359375 C 28.953125 -6.515625 28.128906 -4.945312 26.859375 -3.65625 C 25.585938 -2.363281 24.039062 -1.390625 22.21875 -0.734375 C 20.394531 -0.078125 18.457031 0.226562 16.40625 0.1875 C 14.363281 0.144531 12.378906 -0.265625 10.453125 -1.046875 C 8.523438 -1.828125 6.820312 -3.035156 5.34375 -4.671875 C 3.875 -6.304688 2.789062 -8.375 2.09375 -10.875 C 1.394531 -13.539062 1.40625 -16.144531 2.125 -18.6875 C 2.84375 -21.226562 4.132812 -23.453125 6 -25.359375 C 7.863281 -27.265625 10.125 -28.566406 12.78125 -29.265625 C 14.664062 -29.753906 16.5 -29.9375 18.28125 -29.8125 C 20.0625 -29.6875 21.691406 -29.390625 23.171875 -28.921875 C 24.648438 -28.453125 25.898438 -27.96875 26.921875 -27.46875 C 27.941406 -26.976562 28.617188 -26.632812 28.953125 -26.4375 L 29.203125 -26.4375 L 28.34375 -20.78125 Z M 27.78125 -20.90625 "/></g></g></g><g fill="#ffffff" fill-opacity="1"><g transform="translate(385.948192, 551.803912)"><g><path d="M 2.09375 -11.25 C 1.394531 -13.914062 1.40625 -16.515625 2.125 -19.046875 C 2.84375 -21.585938 4.125 -23.8125 5.96875 -25.71875 C 7.8125 -27.625 10.0625 -28.925781 12.71875 -29.625 C 15.425781 -30.363281 18.050781 -30.375 20.59375 -29.65625 C 23.132812 -28.9375 25.359375 -27.65625 27.265625 -25.8125 C 29.171875 -23.96875 30.472656 -21.695312 31.171875 -19 C 31.898438 -16.332031 31.894531 -13.726562 31.15625 -11.1875 C 30.425781 -8.644531 29.140625 -6.429688 27.296875 -4.546875 C 25.453125 -2.660156 23.195312 -1.347656 20.53125 -0.609375 C 17.863281 0.0859375 15.25 0.0859375 12.6875 -0.609375 C 10.125 -1.304688 7.898438 -2.585938 6.015625 -4.453125 C 4.140625 -6.316406 2.832031 -8.582031 2.09375 -11.25 Z M 26.984375 -17.890625 C 26.578125 -19.359375 25.941406 -20.859375 25.078125 -22.390625 C 24.210938 -23.929688 23.15625 -25.296875 21.90625 -26.484375 C 20.65625 -27.679688 19.257812 -28.546875 17.71875 -29.078125 C 16.1875 -29.609375 14.5625 -29.648438 12.84375 -29.203125 C 11.125 -28.742188 9.738281 -27.890625 8.6875 -26.640625 C 7.644531 -25.390625 6.878906 -23.945312 6.390625 -22.3125 C 5.898438 -20.675781 5.65625 -18.972656 5.65625 -17.203125 C 5.65625 -15.441406 5.859375 -13.828125 6.265625 -12.359375 C 6.679688 -10.878906 7.316406 -9.367188 8.171875 -7.828125 C 9.035156 -6.296875 10.09375 -4.9375 11.34375 -3.75 C 12.59375 -2.5625 13.984375 -1.691406 15.515625 -1.140625 C 17.054688 -0.585938 18.6875 -0.554688 20.40625 -1.046875 C 22.125 -1.492188 23.515625 -2.34375 24.578125 -3.59375 C 25.648438 -4.84375 26.421875 -6.285156 26.890625 -7.921875 C 27.359375 -9.566406 27.59375 -11.269531 27.59375 -13.03125 C 27.59375 -14.789062 27.390625 -16.410156 26.984375 -17.890625 Z M 26.984375 -17.890625 "/></g></g></g><g fill="#ffffff" fill-opacity="1"><g transform="translate(419.200511, 551.803912)"><g><path d="M 23.671875 -23.734375 C 23.992188 -22.171875 24.398438 -21.453125 24.890625 -21.578125 L 25.078125 -21.078125 L 21.765625 -19.796875 L 21.578125 -19.734375 L 18.375 -18.5 L 18.375 -19.0625 C 18.832031 -19.34375 19.140625 -19.800781 19.296875 -20.4375 C 19.460938 -21.070312 19.546875 -21.675781 19.546875 -22.25 C 19.378906 -23.644531 19.039062 -24.96875 18.53125 -26.21875 C 18.019531 -27.46875 17.085938 -28.175781 15.734375 -28.34375 C 13.484375 -28.664062 11.753906 -28.4375 10.546875 -27.65625 C 9.335938 -26.882812 8.503906 -25.800781 8.046875 -24.40625 C 7.597656 -23.007812 7.332031 -21.550781 7.25 -20.03125 L 7.25 -5.28125 C 7.25 -3.28125 7.441406 -1.988281 7.828125 -1.40625 C 8.222656 -0.832031 8.503906 -0.546875 8.671875 -0.546875 L 8.671875 0 L 1.53125 0 L 1.53125 -0.546875 C 1.738281 -0.546875 2.035156 -0.832031 2.421875 -1.40625 C 2.816406 -1.988281 3.015625 -3.28125 3.015625 -5.28125 L 3.015625 -24.34375 C 3.015625 -26.394531 2.816406 -27.695312 2.421875 -28.25 C 2.035156 -28.800781 1.738281 -29.078125 1.53125 -29.078125 L 1.53125 -29.625 L 7.25 -29.625 L 7.25 -23.78125 C 7.695312 -25.550781 8.554688 -27.007812 9.828125 -28.15625 C 11.097656 -29.300781 13.109375 -29.875 15.859375 -29.875 C 18.191406 -29.875 19.984375 -29.300781 21.234375 -28.15625 C 22.484375 -27.007812 23.296875 -25.535156 23.671875 -23.734375 Z M 23.671875 -23.734375 "/></g></g></g><g fill="#ffffff" fill-opacity="1"><g transform="translate(445.814653, 551.803912)"><g/></g></g><g fill="#ffffff" fill-opacity="1"><g transform="translate(459.521253, 551.803912)"><g><path d="M 17.453125 -23.734375 C 19.910156 -20.648438 22.570312 -17.675781 25.4375 -14.8125 C 28.3125 -11.945312 31.203125 -9.179688 34.109375 -6.515625 C 35.296875 -7.578125 36.378906 -8.722656 37.359375 -9.953125 C 38.347656 -11.179688 39.171875 -12.453125 39.828125 -13.765625 L 39.953125 -13.640625 L 40.140625 -13.578125 C 39.609375 -12.347656 38.828125 -11.097656 37.796875 -9.828125 C 36.773438 -8.554688 35.648438 -7.347656 34.421875 -6.203125 C 35.691406 -5.054688 36.960938 -3.941406 38.234375 -2.859375 C 39.503906 -1.773438 40.773438 -0.675781 42.046875 0.4375 L 34.421875 0.4375 C 33.765625 -0.175781 33.117188 -0.78125 32.484375 -1.375 C 31.847656 -1.976562 31.222656 -2.585938 30.609375 -3.203125 C 28.847656 -2.046875 26.859375 -1.066406 24.640625 -0.265625 C 22.429688 0.523438 20.28125 0.921875 18.1875 0.921875 C 17.289062 0.921875 16.15625 0.828125 14.78125 0.640625 C 13.40625 0.460938 11.976562 0.140625 10.5 -0.328125 C 9.03125 -0.804688 7.628906 -1.503906 6.296875 -2.421875 C 4.960938 -3.347656 3.882812 -4.523438 3.0625 -5.953125 C 2.25 -7.390625 1.84375 -9.175781 1.84375 -11.3125 C 1.84375 -13.320312 2.191406 -14.988281 2.890625 -16.3125 C 3.585938 -17.644531 4.488281 -18.734375 5.59375 -19.578125 C 6.695312 -20.421875 7.875 -21.097656 9.125 -21.609375 C 10.375 -22.117188 11.570312 -22.554688 12.71875 -22.921875 C 12.0625 -23.867188 11.414062 -24.820312 10.78125 -25.78125 C 10.144531 -26.75 9.539062 -27.742188 8.96875 -28.765625 C 8.070312 -30.328125 7.539062 -32 7.375 -33.78125 C 7.207031 -35.5625 7.578125 -37.226562 8.484375 -38.78125 C 9.222656 -40.132812 10.226562 -41.203125 11.5 -41.984375 C 12.769531 -42.765625 14.160156 -43.253906 15.671875 -43.453125 C 17.023438 -43.703125 18.4375 -43.691406 19.90625 -43.421875 C 21.382812 -43.160156 22.75 -42.671875 24 -41.953125 C 25.25 -41.234375 26.265625 -40.300781 27.046875 -39.15625 C 27.828125 -38.007812 28.21875 -36.65625 28.21875 -35.09375 C 28.257812 -32.550781 27.835938 -30.550781 26.953125 -29.09375 C 26.066406 -27.644531 24.816406 -26.53125 23.203125 -25.75 C 21.585938 -24.976562 19.671875 -24.304688 17.453125 -23.734375 Z M 30.25 -3.5 C 27.132812 -6.488281 24.109375 -9.539062 21.171875 -12.65625 C 18.242188 -15.769531 15.507812 -19.09375 12.96875 -22.625 C 12.144531 -22.332031 11.34375 -21.976562 10.5625 -21.5625 C 9.789062 -21.15625 9.078125 -20.609375 8.421875 -19.921875 C 7.640625 -19.097656 7.035156 -18.019531 6.609375 -16.6875 C 6.179688 -15.351562 6.046875 -13.679688 6.203125 -11.671875 C 6.410156 -9.378906 7.085938 -7.453125 8.234375 -5.890625 C 9.378906 -4.335938 10.84375 -3.117188 12.625 -2.234375 C 14.414062 -1.359375 16.34375 -0.828125 18.40625 -0.640625 C 20.476562 -0.460938 22.546875 -0.609375 24.609375 -1.078125 C 26.679688 -1.546875 28.5625 -2.351562 30.25 -3.5 Z M 15.25 -42.96875 C 13.9375 -42.632812 12.785156 -41.882812 11.796875 -40.71875 C 10.816406 -39.550781 10.328125 -38.269531 10.328125 -36.875 C 10.328125 -35.976562 10.570312 -34.957031 11.0625 -33.8125 C 11.550781 -32.664062 12.15625 -31.492188 12.875 -30.296875 C 13.59375 -29.109375 14.320312 -27.992188 15.0625 -26.953125 C 15.800781 -25.910156 16.4375 -25.039062 16.96875 -24.34375 C 18.28125 -24.875 19.5 -25.660156 20.625 -26.703125 C 21.75 -27.753906 22.648438 -28.941406 23.328125 -30.265625 C 24.003906 -31.597656 24.34375 -32.984375 24.34375 -34.421875 C 24.34375 -36.140625 24.113281 -37.550781 23.65625 -38.65625 C 23.207031 -39.769531 22.617188 -40.65625 21.890625 -41.3125 C 21.109375 -42.039062 20.070312 -42.578125 18.78125 -42.921875 C 17.488281 -43.273438 16.3125 -43.289062 15.25 -42.96875 Z M 15.25 -42.96875 "/></g></g></g><g fill="#ffffff" fill-opacity="1"><g transform="translate(503.406927, 551.803912)"><g/></g></g><g fill="#ffffff" fill-opacity="1"><g transform="translate(517.113527, 551.803912)"><g><path d="M 9.09375 -43.15625 L 9.09375 -42.59375 C 8.894531 -42.59375 8.597656 -42.316406 8.203125 -41.765625 C 7.816406 -41.210938 7.625 -39.910156 7.625 -37.859375 L 7.625 -5.28125 C 7.625 -3.28125 7.816406 -1.988281 8.203125 -1.40625 C 8.597656 -0.832031 8.894531 -0.546875 9.09375 -0.546875 L 9.09375 0 L 1.84375 0 L 1.84375 -0.546875 C 2.050781 -0.546875 2.335938 -0.832031 2.703125 -1.40625 C 3.078125 -1.988281 3.265625 -3.28125 3.265625 -5.28125 L 3.265625 -37.859375 C 3.265625 -39.910156 3.078125 -41.210938 2.703125 -41.765625 C 2.335938 -42.316406 2.050781 -42.59375 1.84375 -42.59375 L 1.84375 -43.15625 Z M 9.09375 -43.15625 "/></g></g></g><g fill="#ffffff" fill-opacity="1"><g transform="translate(528.054211, 551.803912)"><g><path d="M 1.53125 -29.078125 L 1.53125 -29.625 L 7.1875 -29.625 L 7.1875 -13.703125 C 7.4375 -15.585938 7.773438 -17.285156 8.203125 -18.796875 C 8.628906 -20.316406 9.113281 -21.671875 9.65625 -22.859375 C 10.1875 -24.015625 10.847656 -25.125 11.640625 -26.1875 C 12.441406 -27.25 13.375 -28.128906 14.4375 -28.828125 C 15.507812 -29.523438 16.722656 -29.875 18.078125 -29.875 C 20.328125 -29.875 22.023438 -29.289062 23.171875 -28.125 C 24.316406 -26.957031 25.101562 -25.46875 25.53125 -23.65625 C 25.96875 -21.851562 26.1875 -20.03125 26.1875 -18.1875 L 26.1875 -5.28125 C 26.1875 -3.28125 26.378906 -1.988281 26.765625 -1.40625 C 27.160156 -0.832031 27.4375 -0.546875 27.59375 -0.546875 L 27.59375 0 L 20.46875 0 L 20.46875 -0.546875 C 20.675781 -0.546875 20.960938 -0.832031 21.328125 -1.40625 C 21.703125 -1.988281 21.890625 -3.28125 21.890625 -5.28125 L 21.890625 -18.1875 C 21.890625 -18.925781 21.847656 -19.804688 21.765625 -20.828125 C 21.679688 -21.859375 21.503906 -22.894531 21.234375 -23.9375 C 20.972656 -24.988281 20.582031 -25.910156 20.0625 -26.703125 C 19.550781 -27.503906 18.867188 -28.050781 18.015625 -28.34375 C 16.867188 -28.75 15.769531 -28.644531 14.71875 -28.03125 C 13.675781 -27.414062 12.765625 -26.59375 11.984375 -25.5625 C 11.203125 -24.539062 10.585938 -23.5625 10.140625 -22.625 C 9.242188 -20.695312 8.523438 -18.296875 7.984375 -15.421875 C 7.453125 -12.554688 7.1875 -9.175781 7.1875 -5.28125 C 7.1875 -3.28125 7.378906 -1.988281 7.765625 -1.40625 C 8.160156 -0.832031 8.441406 -0.546875 8.609375 -0.546875 L 8.609375 0 L 1.53125 0 L 1.53125 -0.546875 C 1.738281 -0.546875 2.023438 -0.832031 2.390625 -1.40625 C 2.765625 -1.988281 2.953125 -3.28125 2.953125 -5.28125 L 2.953125 -24.34375 C 2.953125 -26.351562 2.765625 -27.644531 2.390625 -28.21875 C 2.023438 -28.789062 1.738281 -29.078125 1.53125 -29.078125 Z M 1.53125 -29.078125 "/></g></g></g><g fill="#ffffff" fill-opacity="1"><g transform="translate(557.188394, 551.803912)"><g><path d="M 1.53125 -29.203125 L 1.53125 -29.625 C 1.78125 -29.625 2.222656 -29.695312 2.859375 -29.84375 C 3.492188 -29.988281 4.171875 -30.316406 4.890625 -30.828125 C 5.609375 -31.335938 6.210938 -32.164062 6.703125 -33.3125 C 7.191406 -34.457031 7.4375 -36.035156 7.4375 -38.046875 L 11.734375 -38.046875 C 11.734375 -35.585938 11.234375 -33.691406 10.234375 -32.359375 C 9.234375 -31.023438 7.769531 -30.113281 5.84375 -29.625 L 15.0625 -29.625 L 15.0625 -29.203125 L 9.71875 -29.203125 L 9.71875 -11.4375 C 9.71875 -10.695312 9.753906 -9.8125 9.828125 -8.78125 C 9.910156 -7.757812 10.082031 -6.726562 10.34375 -5.6875 C 10.613281 -4.644531 11.003906 -3.722656 11.515625 -2.921875 C 12.035156 -2.117188 12.722656 -1.578125 13.578125 -1.296875 C 14.773438 -0.921875 15.882812 -1.03125 16.90625 -1.625 C 17.925781 -2.21875 18.835938 -3.023438 19.640625 -4.046875 C 20.441406 -5.078125 21.046875 -6.046875 21.453125 -6.953125 C 21.703125 -7.523438 21.945312 -8.128906 22.1875 -8.765625 C 22.4375 -9.398438 22.644531 -10.0625 22.8125 -10.75 L 23.359375 -10.75 C 23.148438 -10.019531 22.929688 -9.316406 22.703125 -8.640625 C 22.484375 -7.960938 22.226562 -7.335938 21.9375 -6.765625 C 21.445312 -5.660156 20.800781 -4.5625 20 -3.46875 C 19.207031 -2.382812 18.265625 -1.492188 17.171875 -0.796875 C 16.085938 -0.0976562 14.867188 0.25 13.515625 0.25 C 11.304688 0.25 9.617188 -0.332031 8.453125 -1.5 C 7.285156 -2.675781 6.484375 -4.164062 6.046875 -5.96875 C 5.617188 -7.769531 5.40625 -9.59375 5.40625 -11.4375 L 5.40625 -25.453125 C 5.40625 -26.472656 5.054688 -27.351562 4.359375 -28.09375 C 3.660156 -28.832031 2.71875 -29.203125 1.53125 -29.203125 Z M 1.53125 -29.203125 "/></g></g></g><g fill="#ffffff" fill-opacity="1"><g transform="translate(582.081539, 551.803912)"><g><path d="M 2.09375 -10.875 C 1.394531 -13.539062 1.40625 -16.144531 2.125 -18.6875 C 2.84375 -21.226562 4.125 -23.453125 5.96875 -25.359375 C 7.8125 -27.265625 10.0625 -28.566406 12.71875 -29.265625 C 15.550781 -30.035156 18.21875 -30.050781 20.71875 -29.3125 C 23.21875 -28.582031 25.359375 -27.363281 27.140625 -25.65625 C 28.921875 -23.957031 30.140625 -22.023438 30.796875 -19.859375 C 29.316406 -19.859375 27.726562 -19.796875 26.03125 -19.671875 C 24.332031 -19.546875 22.785156 -19.320312 21.390625 -19 C 22.953125 -19.039062 24.316406 -18.691406 25.484375 -17.953125 C 26.648438 -17.210938 27.582031 -16.226562 28.28125 -15 C 28.976562 -13.769531 29.363281 -12.4375 29.4375 -11 C 29.601562 -8.789062 29.15625 -6.875 28.09375 -5.25 C 27.03125 -3.632812 25.582031 -2.363281 23.75 -1.4375 C 21.925781 -0.519531 19.925781 0.0078125 17.75 0.15625 C 15.582031 0.300781 13.429688 0.00390625 11.296875 -0.734375 C 9.171875 -1.472656 7.289062 -2.671875 5.65625 -4.328125 C 4.019531 -5.992188 2.832031 -8.175781 2.09375 -10.875 Z M 5.71875 -15.3125 C 5.84375 -14.15625 6.023438 -13.046875 6.265625 -11.984375 C 7.085938 -9.035156 8.273438 -6.71875 9.828125 -5.03125 C 11.390625 -3.351562 13.113281 -2.21875 15 -1.625 C 16.882812 -1.03125 18.757812 -0.894531 20.625 -1.21875 C 22.488281 -1.550781 24.132812 -2.25 25.5625 -3.3125 C 27 -4.382812 28.023438 -5.75 28.640625 -7.40625 C 29.253906 -9.0625 29.253906 -10.914062 28.640625 -12.96875 C 28.191406 -14.488281 27.394531 -15.757812 26.25 -16.78125 C 25.101562 -17.800781 23.6875 -18.382812 22 -18.53125 C 20.320312 -18.675781 18.457031 -18.15625 16.40625 -16.96875 C 14.9375 -16.101562 13.492188 -15.492188 12.078125 -15.140625 C 10.660156 -14.796875 9.359375 -14.664062 8.171875 -14.75 C 7.765625 -14.789062 7.34375 -14.851562 6.90625 -14.9375 C 6.476562 -15.019531 6.082031 -15.144531 5.71875 -15.3125 Z M 26.0625 -20.15625 C 25.28125 -21.925781 24.234375 -23.566406 22.921875 -25.078125 C 21.609375 -26.597656 20.101562 -27.734375 18.40625 -28.484375 C 16.707031 -29.242188 14.851562 -29.359375 12.84375 -28.828125 C 11 -28.335938 9.535156 -27.40625 8.453125 -26.03125 C 7.367188 -24.65625 6.617188 -23.054688 6.203125 -21.234375 C 5.796875 -19.410156 5.632812 -17.597656 5.71875 -15.796875 C 6.414062 -15.472656 7.234375 -15.269531 8.171875 -15.1875 C 9.316406 -15.144531 10.578125 -15.285156 11.953125 -15.609375 C 13.328125 -15.941406 14.734375 -16.515625 16.171875 -17.328125 C 17.847656 -18.316406 19.566406 -19.015625 21.328125 -19.421875 C 23.085938 -19.828125 24.664062 -20.070312 26.0625 -20.15625 Z M 26.0625 -20.15625 "/></g></g></g><g fill="#ffffff" fill-opacity="1"><g transform="translate(614.411899, 551.803912)"><g><path d="M 23.671875 -23.734375 C 23.992188 -22.171875 24.398438 -21.453125 24.890625 -21.578125 L 25.078125 -21.078125 L 21.765625 -19.796875 L 21.578125 -19.734375 L 18.375 -18.5 L 18.375 -19.0625 C 18.832031 -19.34375 19.140625 -19.800781 19.296875 -20.4375 C 19.460938 -21.070312 19.546875 -21.675781 19.546875 -22.25 C 19.378906 -23.644531 19.039062 -24.96875 18.53125 -26.21875 C 18.019531 -27.46875 17.085938 -28.175781 15.734375 -28.34375 C 13.484375 -28.664062 11.753906 -28.4375 10.546875 -27.65625 C 9.335938 -26.882812 8.503906 -25.800781 8.046875 -24.40625 C 7.597656 -23.007812 7.332031 -21.550781 7.25 -20.03125 L 7.25 -5.28125 C 7.25 -3.28125 7.441406 -1.988281 7.828125 -1.40625 C 8.222656 -0.832031 8.503906 -0.546875 8.671875 -0.546875 L 8.671875 0 L 1.53125 0 L 1.53125 -0.546875 C 1.738281 -0.546875 2.035156 -0.832031 2.421875 -1.40625 C 2.816406 -1.988281 3.015625 -3.28125 3.015625 -5.28125 L 3.015625 -24.34375 C 3.015625 -26.394531 2.816406 -27.695312 2.421875 -28.25 C 2.035156 -28.800781 1.738281 -29.078125 1.53125 -29.078125 L 1.53125 -29.625 L 7.25 -29.625 L 7.25 -23.78125 C 7.695312 -25.550781 8.554688 -27.007812 9.828125 -28.15625 C 11.097656 -29.300781 13.109375 -29.875 15.859375 -29.875 C 18.191406 -29.875 19.984375 -29.300781 21.234375 -28.15625 C 22.484375 -27.007812 23.296875 -25.535156 23.671875 -23.734375 Z M 23.671875 -23.734375 "/></g></g></g><g fill="#ffffff" fill-opacity="1"><g transform="translate(641.026056, 551.803912)"><g><path d="M 1.71875 -26.921875 L 1.53125 -27.421875 L 7.3125 -29.625 L 7.3125 -5.28125 C 7.3125 -3.28125 7.503906 -1.988281 7.890625 -1.40625 C 8.285156 -0.832031 8.566406 -0.546875 8.734375 -0.546875 L 8.734375 0 L 1.59375 0 L 1.59375 -0.546875 C 1.800781 -0.546875 2.097656 -0.832031 2.484375 -1.40625 C 2.878906 -1.988281 3.078125 -3.28125 3.078125 -5.28125 L 3.078125 -24.28125 C 2.910156 -25.382812 2.679688 -26.097656 2.390625 -26.421875 C 2.109375 -26.753906 1.882812 -26.921875 1.71875 -26.921875 Z M 4.734375 -34.609375 C 3.953125 -34.609375 3.273438 -34.894531 2.703125 -35.46875 C 2.128906 -36.039062 1.84375 -36.71875 1.84375 -37.5 C 1.84375 -38.3125 2.128906 -38.992188 2.703125 -39.546875 C 3.273438 -40.109375 3.953125 -40.390625 4.734375 -40.390625 C 5.554688 -40.390625 6.242188 -40.109375 6.796875 -39.546875 C 7.347656 -38.992188 7.625 -38.3125 7.625 -37.5 C 7.625 -36.71875 7.347656 -36.039062 6.796875 -35.46875 C 6.242188 -34.894531 5.554688 -34.609375 4.734375 -34.609375 Z M 4.734375 -34.609375 "/></g></g></g><g fill="#ffffff" fill-opacity="1"><g transform="translate(651.290649, 551.803912)"><g><path d="M 2.09375 -11.25 C 1.394531 -13.914062 1.40625 -16.515625 2.125 -19.046875 C 2.84375 -21.585938 4.125 -23.8125 5.96875 -25.71875 C 7.8125 -27.625 10.0625 -28.925781 12.71875 -29.625 C 15.425781 -30.363281 18.050781 -30.375 20.59375 -29.65625 C 23.132812 -28.9375 25.359375 -27.65625 27.265625 -25.8125 C 29.171875 -23.96875 30.472656 -21.695312 31.171875 -19 C 31.898438 -16.332031 31.894531 -13.726562 31.15625 -11.1875 C 30.425781 -8.644531 29.140625 -6.429688 27.296875 -4.546875 C 25.453125 -2.660156 23.195312 -1.347656 20.53125 -0.609375 C 17.863281 0.0859375 15.25 0.0859375 12.6875 -0.609375 C 10.125 -1.304688 7.898438 -2.585938 6.015625 -4.453125 C 4.140625 -6.316406 2.832031 -8.582031 2.09375 -11.25 Z M 26.984375 -17.890625 C 26.578125 -19.359375 25.941406 -20.859375 25.078125 -22.390625 C 24.210938 -23.929688 23.15625 -25.296875 21.90625 -26.484375 C 20.65625 -27.679688 19.257812 -28.546875 17.71875 -29.078125 C 16.1875 -29.609375 14.5625 -29.648438 12.84375 -29.203125 C 11.125 -28.742188 9.738281 -27.890625 8.6875 -26.640625 C 7.644531 -25.390625 6.878906 -23.945312 6.390625 -22.3125 C 5.898438 -20.675781 5.65625 -18.972656 5.65625 -17.203125 C 5.65625 -15.441406 5.859375 -13.828125 6.265625 -12.359375 C 6.679688 -10.878906 7.316406 -9.367188 8.171875 -7.828125 C 9.035156 -6.296875 10.09375 -4.9375 11.34375 -3.75 C 12.59375 -2.5625 13.984375 -1.691406 15.515625 -1.140625 C 17.054688 -0.585938 18.6875 -0.554688 20.40625 -1.046875 C 22.125 -1.492188 23.515625 -2.34375 24.578125 -3.59375 C 25.648438 -4.84375 26.421875 -6.285156 26.890625 -7.921875 C 27.359375 -9.566406 27.59375 -11.269531 27.59375 -13.03125 C 27.59375 -14.789062 27.390625 -16.410156 26.984375 -17.890625 Z M 26.984375 -17.890625 "/></g></g></g><g fill="#ffffff" fill-opacity="1"><g transform="translate(684.542946, 551.803912)"><g><path d="M 23.671875 -23.734375 C 23.992188 -22.171875 24.398438 -21.453125 24.890625 -21.578125 L 25.078125 -21.078125 L 21.765625 -19.796875 L 21.578125 -19.734375 L 18.375 -18.5 L 18.375 -19.0625 C 18.832031 -19.34375 19.140625 -19.800781 19.296875 -20.4375 C 19.460938 -21.070312 19.546875 -21.675781 19.546875 -22.25 C 19.378906 -23.644531 19.039062 -24.96875 18.53125 -26.21875 C 18.019531 -27.46875 17.085938 -28.175781 15.734375 -28.34375 C 13.484375 -28.664062 11.753906 -28.4375 10.546875 -27.65625 C 9.335938 -26.882812 8.503906 -25.800781 8.046875 -24.40625 C 7.597656 -23.007812 7.332031 -21.550781 7.25 -20.03125 L 7.25 -5.28125 C 7.25 -3.28125 7.441406 -1.988281 7.828125 -1.40625 C 8.222656 -0.832031 8.503906 -0.546875 8.671875 -0.546875 L 8.671875 0 L 1.53125 0 L 1.53125 -0.546875 C 1.738281 -0.546875 2.035156 -0.832031 2.421875 -1.40625 C 2.816406 -1.988281 3.015625 -3.28125 3.015625 -5.28125 L 3.015625 -24.34375 C 3.015625 -26.394531 2.816406 -27.695312 2.421875 -28.25 C 2.035156 -28.800781 1.738281 -29.078125 1.53125 -29.078125 L 1.53125 -29.625 L 7.25 -29.625 L 7.25 -23.78125 C 7.695312 -25.550781 8.554688 -27.007812 9.828125 -28.15625 C 11.097656 -29.300781 13.109375 -29.875 15.859375 -29.875 C 18.191406 -29.875 19.984375 -29.300781 21.234375 -28.15625 C 22.484375 -27.007812 23.296875 -25.535156 23.671875 -23.734375 Z M 23.671875 -23.734375 "/></g></g></g><g fill="#ffffff" fill-opacity="1"><g transform="translate(711.157103, 551.803912)"><g><path d="M 23.109375 -18.5625 L 22.8125 -18.5625 C 22.84375 -19.582031 22.519531 -20.707031 21.84375 -21.9375 C 21.175781 -23.164062 20.273438 -24.320312 19.140625 -25.40625 C 18.015625 -26.5 16.773438 -27.375 15.421875 -28.03125 C 14.078125 -28.6875 12.726562 -28.984375 11.375 -28.921875 C 10.019531 -28.859375 8.789062 -28.253906 7.6875 -27.109375 C 6.820312 -26.242188 6.421875 -25.226562 6.484375 -24.0625 C 6.546875 -22.894531 7.023438 -21.84375 7.921875 -20.90625 C 8.617188 -20.207031 9.65625 -19.507812 11.03125 -18.8125 C 12.40625 -18.113281 14.21875 -17.476562 16.46875 -16.90625 C 18.15625 -16.457031 19.570312 -15.925781 20.71875 -15.3125 C 21.863281 -14.695312 22.804688 -14.039062 23.546875 -13.34375 C 24.734375 -12.15625 25.425781 -10.820312 25.625 -9.34375 C 25.832031 -7.863281 25.523438 -6.390625 24.703125 -4.921875 C 23.847656 -3.398438 22.765625 -2.269531 21.453125 -1.53125 C 20.140625 -0.675781 18.582031 -0.0664062 16.78125 0.296875 C 14.976562 0.671875 13.296875 0.816406 11.734375 0.734375 C 10.265625 0.609375 8.71875 0.28125 7.09375 -0.25 C 5.476562 -0.78125 3.789062 -1.554688 2.03125 -2.578125 L 1.53125 -2.890625 L 3.015625 -9.71875 L 3.5 -9.59375 C 3.414062 -9.09375 3.578125 -8.429688 3.984375 -7.609375 C 4.398438 -6.796875 4.894531 -6 5.46875 -5.21875 C 6.039062 -4.445312 6.515625 -3.894531 6.890625 -3.5625 C 7.703125 -2.78125 8.609375 -2.144531 9.609375 -1.65625 C 10.617188 -1.164062 11.632812 -0.816406 12.65625 -0.609375 C 13.6875 -0.410156 14.703125 -0.332031 15.703125 -0.375 C 16.710938 -0.414062 17.664062 -0.554688 18.5625 -0.796875 C 19.050781 -0.921875 19.507812 -1.070312 19.9375 -1.25 C 20.375 -1.4375 20.796875 -1.65625 21.203125 -1.90625 C 21.660156 -2.226562 22.03125 -2.535156 22.3125 -2.828125 C 22.601562 -3.148438 22.859375 -3.492188 23.078125 -3.859375 C 23.304688 -4.234375 23.460938 -4.628906 23.546875 -5.046875 C 23.585938 -5.328125 23.597656 -5.617188 23.578125 -5.921875 C 23.554688 -6.234375 23.503906 -6.535156 23.421875 -6.828125 C 23.046875 -7.890625 22.335938 -8.738281 21.296875 -9.375 C 20.253906 -10.007812 19.054688 -10.53125 17.703125 -10.9375 C 16.347656 -11.351562 14.972656 -11.765625 13.578125 -12.171875 C 11.617188 -12.742188 9.898438 -13.550781 8.421875 -14.59375 C 6.941406 -15.644531 5.84375 -16.863281 5.125 -18.25 C 4.414062 -19.644531 4.203125 -21.117188 4.484375 -22.671875 C 4.773438 -24.234375 5.71875 -25.816406 7.3125 -27.421875 C 8.375 -28.523438 9.765625 -29.21875 11.484375 -29.5 C 13.210938 -29.789062 14.988281 -29.78125 16.8125 -29.46875 C 18.632812 -29.164062 20.257812 -28.664062 21.6875 -27.96875 C 23.125 -27.269531 24.113281 -26.472656 24.65625 -25.578125 Z M 23.109375 -18.5625 "/></g></g></g><g clip-path="url(#1e4af54cc0)"><g clip-path="url(#f13c0e9c56)"><path fill="#ffffff" d="M 371.617188 297.640625 L 427.726562 297.640625 L 427.726562 353.746094 L 371.617188 353.746094 Z M 371.617188 297.640625 " fill-opacity="1" fill-rule="nonzero"/></g></g></svg>